<svg xmlns="http://www.w3.org/2000/svg" height="800" width="1200" viewBox="-20.9607 -6.946525 181.6594 41.67915" style="background-color: #e40046"><g fill-rule="evenodd" fill="#FFF"><path d="M41.0903 7.3789c-3.009 0-4.8198 1.4701-4.8198 3.891 0 1.8738 1.0222 3.1708 4.3234 4.3236l1.0806.375c2.0447.7205 2.6583 1.3256 2.6583 2.3346 0 1.2683-1.11 2.0465-2.9796 2.0465-1.519 0-2.7167-.4612-3.856-1.5277-.4674-.4612-1.0806-.4612-1.548 0l-.0294.029c-.3796.3745-.3796 1.1238 0 1.4987 1.5484 1.4699 3.2425 2.0753 5.4334 2.0753 3.3009 0 5.3166-1.5278 5.3166-4.1508 0-2.0463-1.0225-3.1994-4.2066-4.3236l-1.0516-.3746c-2.1615-.7782-2.8044-1.3836-2.8044-2.3922 0-1.0377.9641-1.7296 2.4831-1.7296 1.2561 0 2.2493.4325 3.3009 1.355.4674.4322 1.11.4032 1.5773-.058l.0294-.0286c.3796-.3747.3796-1.1242-.0294-1.4702-1.4312-1.297-2.8918-1.8734-4.8782-1.8734m31.4609 8.82v.346c0 2.1904-1.5774 3.8044-4.1189 3.8044-1.9864 0-3.184-.8934-3.184-2.5364 0-1.585 1.2854-2.5074 3.5053-2.5074h3.7976zm-3.4176-8.82c-1.8113 0-3.5057.4898-5.1415 2.1328-.3796.4036-.3796 1.1818 0 1.5564l.0584.058c.4384.4322 1.081.4322 1.519-.029 1.1977-1.2684 2.3664-1.643 3.564-1.643 2.1323 0 3.4177 1.1818 3.4177 3.1418v.7206h-3.7976c-3.6805 0-5.842 1.643-5.842 4.4964 0 2.6806 2.0737 4.612 4.995 4.612 2.074 0 3.6808-.8072 4.674-2.1042v.634c0 .5764.4964 1.0666 1.11 1.0666h.0583c.5842 0 1.081-.4902 1.081-1.0952v-8.3302c0-3.257-2.1326-5.217-5.6963-5.217zm62.2206 8.82v.346c0 2.1904-1.5774 3.8044-4.119 3.8044-1.9863 0-3.184-.8934-3.184-2.5364 0-1.585 1.2855-2.5074 3.5054-2.5074h3.7976zm-3.418-8.82c-3.067 0-5.4624 1.7872-5.4624 2.9686 0 .2884.0877.5768.2923.7786l.0584.0576c.2045.2018.438.288.7303.288.4964 0 .847-.3746 1.3145-.8358.5841-.5764 1.519-1.1818 3.067-1.1818 2.1325 0 3.4179 1.1818 3.4179 3.1418v.7206h-3.7976c-3.6805 0-5.842 1.643-5.842 4.4964 0 2.6806 2.0737 4.612 4.995 4.612 2.074 0 3.6808-.8072 4.674-2.1042v.634c0 .5764.4964 1.0666 1.11 1.0666h.0583c.5842 0 1.081-.4902 1.081-1.0952v-8.3302c0-3.257-2.1326-5.217-5.6966-5.217zm-25.3847 8.7623c-.2922 2.6517-1.6357 4.2084-4.0895 4.2084-2.775 0-4.1483-2.018-4.1483-5.4478 0-3.4301 1.3732-5.4477 4.1483-5.4477 2.4828 0 3.8266 1.6143 4.0895 4.3235zm2.2787 2.1042V1.153c0-.6051-.4968-1.0953-1.1103-1.0953h-.0584c-.6132 0-1.11.4902-1.11 1.0953v8.2725c-1.0225-1.326-2.5415-2.0466-4.557-2.0466-3.8853 0-6.0175 2.7672-6.0175 7.523s2.1322 7.523 6.0176 7.523c2.1615 0 3.7682-.8358 4.7614-2.3636.409 1.2105 1.3729 2.1618 2.3077 2.1618.6135 0 1.1393-.4322 1.1393-1.0666 0-1.1528-1.3728-.98-1.3728-2.911zm-21.1786 2.1041c-2.775 0-4.1479-2.0176-4.1479-5.3322v-.2308c0-3.3146 1.3729-5.3322 4.148-5.3322 2.7166 0 4.1478 2.0176 4.1478 5.4474 0 3.4302-1.4312 5.4478-4.1479 5.4478m.4674-12.9708c-2.0157 0-3.5637.7496-4.5863 2.1042v-.634c0-.5764-.4964-1.0666-1.0809-1.0666h-.0584c-.6132 0-1.11.4902-1.11 1.0666v17.8128c0 .6054.4968 1.0956 1.11 1.0956h.0584c.6135 0 1.1103-.4902 1.1103-1.0956v-6.3122c1.0222 1.3546 2.5412 2.0752 4.557 2.0752 3.885 0 6.0175-2.7668 6.0175-7.523 0-4.7558-2.1325-7.523-6.0176-7.523m29.5914 2.0755c2.5999 0 3.9144 1.5277 4.0605 4.2083h-8.0626c.2922-2.652 1.6067-4.2083 4.002-4.2083zm5.7256 9.7423c-.4674-.4322-1.1103-.4901-1.636-.0865-1.1394.8648-2.1616 1.2394-3.6222 1.2394-2.8044 0-4.3234-1.7582-4.4986-4.6982h8.9678c.8474 0 1.4609-.6054 1.4609-1.4412 0-4.266-2.0741-6.831-6.3975-6.831-4.2063 0-6.3972 2.7958-6.3972 7.523 0 4.7268 2.366 7.523 6.8646 7.523 2.1325 0 3.6221-.5189 5.1998-1.7873.438-.346.467-1.0376.0874-1.4122l-.029-.029zM51.0514 20.926v-7.1195c0-2.7095 1.3729-4.3525 3.9435-4.3525 2.4831 0 3.564 1.3836 3.564 4.1507v7.3212c0 .6054.4965 1.0953 1.11 1.0953h.0584c.6135 0 1.11-.4899 1.11-1.0953v-7.3788c0-4.1794-1.6358-6.1683-5.3163-6.1683-2.0158 0-3.5347.7495-4.499 2.1042v-.634c0-.5765-.4963-1.0666-1.0805-1.0666h-.0584c-.6135 0-1.1103.4901-1.1103 1.0665v12.077c0 .6054.4968 1.0953 1.1103 1.0953h.0584c.6132 0 1.11-.4899 1.11-1.0953m87.5472 1.2971c.6135 0 1.1393-.4322 1.1393-1.0666 0-1.1528-1.3729-.98-1.3729-2.911V1.153c0-.6051-.4967-1.0953-1.1103-1.0953h-.0584c-.6135 0-1.11.4902-1.11 1.0953v17.6979c0 1.7006 1.2561 3.3722 2.5122 3.3722"/><path mask="url(#mask-2)" d="M6.3 25.6414c.3213.5478.672.7496 1.3145.7496h11.9767c.6428 0 .9931-.1732 1.4022-.692l9.0558-11.5296c.2042-.2594-.0294-.6916-.3506-.6916H15.1803c-.6425 0-.9932-.2018-1.3144-.7492L6.5629.2766c-.1752-.2883-.6426-.2304-.7597.0576L.1657 13.7948c-.2629.6054-.2045 1.009.1168 1.5564z" transform="translate(-.0001 1.3952)"/><path d="M21.373 12.1636c.3214.5478.672.7495 1.3146.7495h7.0107c.3506 0 .6135-.4325.4384-.7495L23.4472.7496C23.1259.2018 22.7752 0 22.1327 0H8.7535c-.3503 0-.6132.4322-.438.7496l3.4763 5.9376c.3213.5474.6716.7492 1.3145.7492h5.5207z"/></g></svg>